<svg id="Capa_1" data-name="Capa 1" xmlns="http://www.w3.org/2000/svg" viewBox="0 0 485.21 485.21"><defs><style>.cls-1{fill:#fff;}</style></defs><title>Artboard 1</title><path class="cls-1" d="M101,288A177.21,177.21,0,0,1,65.61,182c0-97.6,79.4-177,177-177S419.56,84.4,419.56,182a177.19,177.19,0,0,1-35.31,106L242.61,476.88ZM242.61,55.66A126.3,126.3,0,1,0,368.91,182C368.91,112.32,312.25,55.66,242.61,55.66Z"/><path d="M242.61,10A171.86,171.86,0,0,1,380.25,285L242.61,468.54,105,285A171.92,171.92,0,0,1,242.61,10m0,303.26h0a131.3,131.3,0,1,0-92.84-38.46,130.45,130.45,0,0,0,92.84,38.46M242.61,0c-100.48,0-182,81.47-182,182A181.13,181.13,0,0,0,97,291L242.61,485.21,388.25,291a181.11,181.11,0,0,0,36.31-109c0-100.53-81.47-182-181.95-182Zm0,303.26A121.3,121.3,0,1,1,363.91,182v0a121.31,121.31,0,0,1-121.3,121.26Z"/></svg>