<svg id="Capa_1" data-name="Capa 1" xmlns="http://www.w3.org/2000/svg" viewBox="0 0 485.21 485.21"><defs><style>.cls-1{fill:#fff;}</style></defs><title>Artboard 1</title><path d="M101,288A175.5,175.5,0,0,1,65.65,182c0-97.57,79.38-177,177-177s177,79.38,177,177A175.49,175.49,0,0,1,384.25,288L242.61,476.88ZM242.61,55.65A126.3,126.3,0,1,0,368.91,182,126.45,126.45,0,0,0,242.61,55.65Z"/><path class="cls-1" d="M242.61,10A172,172,0,0,1,380.25,285L242.61,468.55,105,285A172,172,0,0,1,242.61,10m0,303.26a131.31,131.31,0,1,0-92.84-38.46,130.44,130.44,0,0,0,92.84,38.46M242.61,0c-100.48,0-182,81.47-182,182A181.13,181.13,0,0,0,97,291L242.61,485.21,388.25,291A181.11,181.11,0,0,0,424.56,182c0-100.48-81.47-182-182-182Zm0,303.26A121.3,121.3,0,1,1,363.91,182a121.31,121.31,0,0,1-121.3,121.3Z"/></svg>